<svg width="240" height="300" fill="none" xmlns="http://www.w3.org/2000/svg"><path d="M0 15V5h.5V.5H5V0h10v.5h10V0h10v.5h10V0h10v.5h10V0h10v.5h10V0h10v.5h10V0h10v.5h10V0h10v.5h10V0h10v.5h5c1.75 0 3.48.06 5.2.17l.04-.5c3.52.23 6.99.68 10.37 1.35l-.1.5c3.44.67 6.8 1.57 10.05 2.68l.16-.47a79.54 79.54 0 0 1 9.67 4l-.22.45a79.42 79.42 0 0 1 9 5.21l.28-.42a80.22 80.22 0 0 1 8.3 6.38l-.33.38a80 80 0 0 1 7.35 7.35l.38-.33c2.3 2.62 4.43 5.4 6.38 8.3l-.42.28a79.48 79.48 0 0 1 5.2 9l.46-.22a79.56 79.56 0 0 1 4 9.67l-.47.16c1.1 3.26 2 6.61 2.69 10.04l.49-.1a80.07 80.07 0 0 1 1.35 10.38l-.5.03c.11 1.73.17 3.46.17 5.21v5h.5v10h-.5v10h.5v10h-.5v10h.5v10h-.5v10h.5v10h-.5v10h.5v10h-.5v10h.5v10h-.5v10h.5v10h-.5v10h.5v10h-.5v10h.5v10h-.5v10h.5v10h-.5v10h.5v10h-.5v4.5H235v.5h-10v-.5h-10v.5h-10v-.5h-10v.5h-10v-.5h-10v.5h-10v-.5h-10v.5h-10v-.5h-10v.5h-10v-.5h-10v.5h-10v-.5H95v.5H85v-.5H75v.5H65v-.5H55v.5H45v-.5H35v.5H25v-.5H15v.5H5v-.5H.5V295H0v-10h.5v-10H0v-10h.5v-10H0v-10h.5v-10H0v-10h.5v-10H0v-10h.5v-10H0v-10h.5v-10H0v-10h.5v-10H0v-10h.5v-10H0v-10h.5v-10H0v-10h.5V95H0V85h.5V75H0V65h.5V55H0V45h.5V35H0V25h.5V15H0Z" stroke="#FDFDFD" stroke-linejoin="round" stroke-dasharray="10 10"/></svg>