<svg width="240" height="300" fill="none" xmlns="http://www.w3.org/2000/svg"><path d="M225 0h10v.5h4.5V5h.5v10h-.5v10h.5v10h-.5v10h.5v10h-.5v10h.5v10h-.5v10h.5v10h-.5v10h.5v10h-.5v10h.5v10h-.5v10h.5v10h-.5v10h.5v10h-.5v10h.5v10h-.5v10h.5v10h-.5v10h.5v10h-.5v10h.5v10h-.5v10h.5v10h-.5v10h.5v10h-.5v4.5H235v.5h-10v-.5h-10v.5h-10v-.5h-10v.5h-10v-.5h-10v.5h-10v-.5h-10v.5h-10v-.5h-10v.5h-10v-.5h-10v.5h-10v-.5H95v.5H85v-.5H75v.5H65v-.5H55v.5H45v-.5H35v.5H25v-.5H15v.5H5v-.5H.5V295H0v-10h.5v-10H0v-10h.5v-10H0v-10h.5v-10H0v-10h.5v-10H0v-10h.5v-10H0v-10h.5v-10H0v-10h.5v-10H0v-10h.5v-10H0v-10h.5v-10H0v-10h.5V95H0V85h.5v-5c0-1.75.06-3.48.17-5.2l-.5-.04c.23-3.52.68-6.99 1.35-10.37l.5.1A78.9 78.9 0 0 1 4.7 54.43l-.47-.16a79.5 79.5 0 0 1 4-9.67l.45.22a79.41 79.41 0 0 1 5.21-9l-.42-.28a80.33 80.33 0 0 1 6.38-8.3l.38.33a80 80 0 0 1 7.35-7.35l-.33-.38c2.62-2.3 5.4-4.43 8.3-6.38l.28.42a79.4 79.4 0 0 1 9-5.2l-.22-.46a79.5 79.5 0 0 1 9.67-4l.16.47c3.26-1.1 6.61-2 10.04-2.69l-.1-.49A80.05 80.05 0 0 1 74.77.17l.03.5A80.7 80.7 0 0 1 80 .5h5V0h10v.5h10V0h10v.5h10V0h10v.5h10V0h10v.5h10V0h10v.5h10V0h10v.5h10V0h10v.5h10V0Z" stroke="#FDFDFD" stroke-linejoin="round" stroke-dasharray="10 10"/></svg>