<svg width="20" height="18" fill="none" xmlns="http://www.w3.org/2000/svg"><path d="M19 8.47c0 4.71-4.03 8.53-9 8.53-4.96 0-8.99-3.82-8.99-8.53m-.01 0C1 4.35 4.53 1 8.88 1c4.34 0 7.87 3.35 7.87 7.47 0 3.53-3.02 6.4-6.74 6.4-3.73 0-6.75-2.87-6.75-6.4 0-2.95 2.52-5.33 5.62-5.33s5.61 2.4 5.61 5.33m.01 0c0 2.36-2 4.26-4.5 4.26-2.48 0-4.5-1.9-4.5-4.26a3.3 3.3 0 0 1 3.39-3.2 3.3 3.3 0 0 1 3.37 3.2m0 0c0 1.17-1.02 2.13-2.25 2.13a2.2 2.2 0 0 1-2.25-2.13c0-.59.5-1.06 1.12-1.06.62 0 1.11.47 1.11 1.06" stroke="#FA9F42" stroke-miterlimit="10"/></svg>