<svg width="170" height="22" fill="none" xmlns="http://www.w3.org/2000/svg"><path d="M43.55 12.37v5.83h9.57v3.4H40V0h12.96v3.4h-9.41V9h8.64v3.36h-8.64ZM67.79 13.82H56.37v-3.2h11.42v3.2ZM88.98 0h3.8v21.6h-3.55V6.2l-6.57 10.86h-.44L75.65 6.17V21.6H72.1V0h3.83l6.5 10.8L88.99 0ZM111.78 15.3H99.49c.25 1.16.8 2.05 1.67 2.69.89.64 1.98.96 3.27.96 1.75 0 3.08-.64 3.98-1.92l2.75 1.6c-1.5 2.25-3.75 3.37-6.76 3.37a8.35 8.35 0 0 1-6.08-2.28 7.9 7.9 0 0 1-2.31-5.83c0-2.29.76-4.21 2.28-5.77a7.77 7.77 0 0 1 5.86-2.35c2.25 0 4.1.8 5.56 2.38a8.2 8.2 0 0 1 2.2 5.77c0 .4-.05.87-.13 1.38ZM99.46 12.6h9.08a4.3 4.3 0 0 0-4.41-3.8c-1.24 0-2.27.34-3.1 1.02a4.6 4.6 0 0 0-1.57 2.78ZM122.95 5.77c1.8 0 3.22.58 4.3 1.73 1.08 1.13 1.63 2.67 1.63 4.63v9.47h-3.34v-9.13c0-1.16-.3-2.04-.92-2.66a3.42 3.42 0 0 0-2.53-.92 3.7 3.7 0 0 0-2.87 1.14c-.7.74-1.05 1.84-1.05 3.3v8.27h-3.34V6.17h3.34v1.98c1.03-1.59 2.62-2.38 4.78-2.38ZM141.08 6.17v3.21h-3.83v7.4c0 .64.14 1.1.43 1.4.29.26.71.42 1.27.46.57.02 1.28 0 2.13-.03v2.99c-2.55.3-4.39.1-5.5-.65-1.1-.76-1.66-2.15-1.66-4.16V9.38h-2.84v-3.2h2.84V2.83l3.33-.99v4.32h3.83ZM156.52 19.66a7.85 7.85 0 0 1-5.77 2.34c-2.28 0-4.2-.78-5.77-2.34a7.86 7.86 0 0 1-2.38-5.78c0-2.26.8-4.18 2.38-5.76a7.85 7.85 0 0 1 5.77-2.35c2.28 0 4.2.78 5.77 2.35a7.86 7.86 0 0 1 2.38 5.77c0 2.26-.8 4.18-2.38 5.77Zm-10.58-5.78a4.73 4.73 0 0 0 4.81 4.88 4.73 4.73 0 0 0 4.81-4.88 4.73 4.73 0 0 0-4.8-4.87 4.73 4.73 0 0 0-4.81 4.88ZM165.25 6.17v2.6c.84-1.92 2.43-2.88 4.75-2.88V9.5a4.96 4.96 0 0 0-3.33.93c-.95.68-1.42 1.8-1.42 3.4v7.77h-3.34V6.17h3.34Z" fill="#353A5A"/><path d="M0 9.26A9.3 9.3 0 0 1 9.33 0H28v1.16a9.3 9.3 0 0 1-9.33 9.26H0V9.26ZM0 18.53c0-3.2 2.61-5.8 5.83-5.8H7a4.65 4.65 0 0 1 4.67 4.64A4.65 4.65 0 0 1 7 22H0v-3.47ZM16.33 18.53c0-3.2 2.62-5.8 5.84-5.8h1.16A4.65 4.65 0 0 1 28 17.38 4.65 4.65 0 0 1 23.33 22h-7v-3.47Z" fill="#FA9F42"/></svg>