<svg width="22" height="22" fill="none" xmlns="http://www.w3.org/2000/svg"><path fill-rule="evenodd" clip-rule="evenodd" d="M9.28 0h3.44c3.25 0 4.87 0 6.11.63a5.8 5.8 0 0 1 2.54 2.54C22 4.4 22 6.03 22 9.28v3.44c0 3.25 0 4.87-.63 6.11a5.8 5.8 0 0 1-2.54 2.54c-1.24.63-2.86.63-6.11.63H9.28c-3.25 0-4.87 0-6.11-.63a5.8 5.8 0 0 1-2.54-2.54C0 17.6 0 15.97 0 12.72V9.28c0-3.25 0-4.87.63-6.11A5.8 5.8 0 0 1 3.17.63C4.4 0 6.03 0 9.28 0Zm7.05 12.14c-.1.23-.06.46.11.7l.7.73c.71.74 1.45 1.5 1.68 2.24.08.47-.3.64-.7.64l-2.09.04a.87.87 0 0 1-.46-.05c-.6-.2-1-.67-1.4-1.15-.25-.31-.5-.62-.82-.86-.15-.12-.34-.2-.52-.1-.42.21-.43.63-.44 1.05 0 .32-.01.64-.2.88-.23.27-.7.23-1.08.2h-.29c-3.91.13-6.47-5.48-7.64-8.38-.13-.4.09-.59.48-.59l2.24-.01a.7.7 0 0 1 .56.43c.33.82 1.55 3.78 2.31 3.78s.57-3.02.31-3.58c-.14-.2-.37-.32-.7-.37-.07-.02-.05-.08.05-.21.34-.44 2.44-.57 3.37-.35.18.04.36.13.44.32.18.43.14 1.16.1 1.9-.06.9-.11 1.83.26 2.23.15.04.23.04.36-.06.96-.98 1.62-2.5 2.16-3.74a.46.46 0 0 1 .36-.31h3.04c1 0-.45 2.06-1.44 3.46-.38.54-.69.98-.75 1.16Z" fill="#353A5A"/></svg>