<svg width="22" height="22" fill="none" xmlns="http://www.w3.org/2000/svg"><path fill-rule="evenodd" clip-rule="evenodd" d="M.63 3.17C0 4.4 0 6.03 0 9.28v3.44c0 3.25 0 4.87.63 6.11a5.8 5.8 0 0 0 2.54 2.54C4.4 22 6.03 22 9.28 22h3.44c3.25 0 4.87 0 6.11-.63a5.8 5.8 0 0 0 2.54-2.54c.63-1.24.63-2.86.63-6.11V9.28c0-3.25 0-4.87-.63-6.11A5.8 5.8 0 0 0 18.83.63C17.6 0 15.97 0 12.72 0H9.28C6.03 0 4.41 0 3.17.63A5.8 5.8 0 0 0 .63 3.17ZM11 14.93a3.93 3.93 0 1 0 0-7.86 3.93 3.93 0 0 0 0 7.86ZM13.36 11a2.36 2.36 0 1 1-4.72 0 2.36 2.36 0 0 1 4.72 0Zm-9.7-5.28c-.52 1-.52 2.33-.52 4.97v.62c0 2.64 0 3.96.52 4.97.45.89 1.17 1.61 2.06 2.06 1 .52 2.33.52 4.97.52h.62c2.64 0 3.96 0 4.97-.52a4.71 4.71 0 0 0 2.06-2.06c.52-1 .52-2.33.52-4.97v-.62c0-2.64 0-3.96-.52-4.97a4.71 4.71 0 0 0-2.06-2.06c-1-.52-2.33-.52-4.97-.52h-.62c-2.64 0-3.96 0-4.97.52a4.71 4.71 0 0 0-2.06 2.06Zm7.03-1h.62c1.35 0 2.27 0 2.97.05a3.4 3.4 0 0 1 1.29.29c.6.3 1.07.78 1.37 1.37.13.25.23.6.29 1.29.05.7.06 1.62.06 2.97v.62c0 1.35 0 2.27-.06 2.97a3.4 3.4 0 0 1-.29 1.29c-.3.6-.78 1.07-1.37 1.37-.25.13-.6.23-1.29.29-.7.05-1.62.06-2.97.06h-.62c-1.35 0-2.27 0-2.97-.06a3.4 3.4 0 0 1-1.29-.29c-.6-.3-1.07-.78-1.37-1.37a3.4 3.4 0 0 1-.29-1.29c-.05-.7-.06-1.62-.06-2.97v-.62c0-1.35 0-2.27.06-2.97a3.4 3.4 0 0 1 .29-1.29c.3-.6.78-1.07 1.37-1.37.25-.13.6-.23 1.29-.29.7-.05 1.62-.06 2.97-.06Zm5.81 1.96a1.18 1.18 0 1 1-2.36 0 1.18 1.18 0 0 1 2.36 0Z" fill="#353A5A"/></svg>